<svg width="17" height="18" viewBox="0 0 17 18" fill="none" xmlns="http://www.w3.org/2000/svg">
<path d="M11.9503 0.284485H5.47589C2.79793 0.284485 0.620117 2.55592 0.620117 5.34899V16.3221C0.620117 16.546 0.705382 16.7607 0.857154 16.9189C1.00893 17.0772 1.21477 17.1662 1.42941 17.1662H11.9503C14.6282 17.1662 16.806 14.8947 16.806 12.1017V5.34899C16.806 2.55592 14.6282 0.284485 11.9503 0.284485ZM15.1874 12.1017C15.1874 13.9637 13.7356 15.478 11.9503 15.478H2.23871V5.34899C2.23871 3.48694 3.69059 1.97265 5.47589 1.97265H11.9503C13.7356 1.97265 15.1874 3.48694 15.1874 5.34899V12.1017Z" fill="black"/>
<path d="M4.6665 11.2466V12.9339H6.28429L10.7589 8.27291L9.14191 6.58643L4.6665 11.2466ZM11.5212 7.47778L9.90427 5.78961L11.1368 4.50491L12.7554 6.19224L11.5212 7.47778Z" fill="black"/>
</svg>
