<svg width="303" height="194" viewBox="0 0 303 194" fill="none" xmlns="http://www.w3.org/2000/svg">
<path d="M200 171V99.5L192.704 93.2701C168.57 72.6608 151.863 44.7024 145.148 13.6842L145 13M57 171V106.842C57 101.956 57.4107 97.0788 58.2279 92.2619V92.2619C63.3585 62.0184 84.0079 36.6976 112.601 25.5881L145 13M145 13H181.5L186.734 24.4577C195.476 43.5961 208.225 60.6348 224.119 74.4222L241.5 89.5V171M0.5 181.5H303" stroke="#ADADAD" stroke-width="25"/>
<path d="M219 177.5V97.5L184 56.5L166.5 13H142.5" stroke="#ADADAD" stroke-width="25"/>
<rect x="137.349" y="126.37" width="55.2085" height="21.0796" rx="10.5398" transform="rotate(-138.5 137.349 126.37)" fill="#ADADAD"/>
<rect x="110" y="137.837" width="46" height="21" rx="10.5" transform="rotate(-60 110 137.837)" fill="#ADADAD"/>
</svg>
