<svg width="17" height="13" viewBox="0 0 17 13" fill="none" xmlns="http://www.w3.org/2000/svg">
<path d="M15 1L2 11.9231M12.8744 2.78601C11.5481 1.6623 10.3179 1 8.50012 1C5.23723 1 2.44248 4.13103 1.27761 5.65168C1.09767 5.8833 1 6.16825 1 6.46155C1 6.75485 1.09767 7.0398 1.27761 7.27142C1.97476 8.18151 2.67305 8.95269 4.28876 10M14.5 4.5C14.5 4.5 15.365 5.18477 15.7226 5.65168C16.0925 6.13542 16.0925 6.78847 15.7226 7.27142C14.5578 8.79207 11.763 11.9231 8.50012 11.9231C7.68688 11.9231 6.90272 11.7286 6.16563 11.413" stroke="black" stroke-width="1.56044" stroke-linecap="round" stroke-linejoin="round"/>
<path d="M8.50009 4.12097C7.20738 4.12097 6.15942 5.16892 6.15942 6.46164C6.15942 7.01612 6.35223 7.52557 6.67445 7.9266L10.1459 4.79735C9.72312 4.37917 9.14176 4.12097 8.50009 4.12097Z" stroke="black" stroke-width="1.56044" stroke-linecap="round" stroke-linejoin="round"/>
</svg>
