<svg width="17" height="13" viewBox="0 0 17 13" fill="none" xmlns="http://www.w3.org/2000/svg">
<path d="M15.7226 5.65168C16.0925 6.13542 16.0925 6.78847 15.7226 7.27142C14.5578 8.79207 11.763 11.9231 8.50012 11.9231C5.23723 11.9231 2.44248 8.79207 1.27761 7.27142C1.09767 7.0398 1 6.75485 1 6.46155C1 6.16825 1.09767 5.8833 1.27761 5.65168C2.44248 4.13103 5.23723 1 8.50012 1C11.763 1 14.5578 4.13103 15.7226 5.65168V5.65168Z" stroke="black" stroke-width="1.56044" stroke-linecap="round" stroke-linejoin="round"/>
<path d="M8.50009 8.8023C9.7928 8.8023 10.8408 7.75435 10.8408 6.46164C10.8408 5.16892 9.7928 4.12097 8.50009 4.12097C7.20738 4.12097 6.15942 5.16892 6.15942 6.46164C6.15942 7.75435 7.20738 8.8023 8.50009 8.8023Z" stroke="black" stroke-width="1.56044" stroke-linecap="round" stroke-linejoin="round"/>
</svg>
