<svg width="18" height="16" viewBox="0 0 18 16" fill="none" xmlns="http://www.w3.org/2000/svg">
<path d="M9.18962 12.9393C9.77541 13.5251 9.77541 14.4749 9.18962 15.0607C8.60383 15.6464 7.65409 15.6464 7.0683 15.0607L9.18962 12.9393ZM2.05603 7.92708L0.995372 8.98774C0.714068 8.70643 0.556032 8.3249 0.556032 7.92708C0.556032 7.52925 0.714067 7.14772 0.995372 6.86642L2.05603 7.92708ZM7.0683 0.79349C7.65408 0.207704 8.60383 0.207704 9.18962 0.79349C9.77541 1.37928 9.77541 2.32902 9.18962 2.91481L7.0683 0.79349ZM16 6.37754C16.8284 6.37754 17.5 7.04911 17.5 7.87754C17.5 8.70597 16.8284 9.37754 16 9.37754V6.37754ZM7.0683 15.0607L0.995372 8.98774L3.11669 6.86642L9.18962 12.9393L7.0683 15.0607ZM0.995372 6.86642L7.0683 0.79349L9.18962 2.91481L3.11669 8.98774L0.995372 6.86642ZM16 9.37754H3.75615V6.37754L16 6.37754V9.37754Z" fill="#57B85F"/>
</svg>
