<svg width="18" height="16" viewBox="0 0 18 16" fill="none" xmlns="http://www.w3.org/2000/svg">
<path d="M8.81075 12.9393C8.22496 13.5251 8.22496 14.4749 8.81075 15.0607C9.39653 15.6464 10.3463 15.6464 10.9321 15.0607L8.81075 12.9393ZM15.9443 7.92708L17.005 8.98774C17.2863 8.70643 17.4443 8.3249 17.4443 7.92708C17.4443 7.52925 17.2863 7.14772 17.005 6.86642L15.9443 7.92708ZM10.9321 0.79349C10.3463 0.207704 9.39653 0.207704 8.81075 0.79349C8.22496 1.37928 8.22496 2.32902 8.81075 2.91481L10.9321 0.79349ZM2.00037 6.37754C1.17194 6.37754 0.500366 7.04911 0.500366 7.87754C0.500366 8.70597 1.17194 9.37754 2.00037 9.37754V6.37754ZM10.9321 15.0607L17.005 8.98774L14.8837 6.86642L8.81075 12.9393L10.9321 15.0607ZM17.005 6.86642L10.9321 0.79349L8.81075 2.91481L14.8837 8.98774L17.005 6.86642ZM2.00037 9.37754H14.2442V6.37754L2.00037 6.37754V9.37754Z" fill="#57B85F"/>
</svg>
