<svg width="100" height="100" viewBox="0 0 100 100" fill="none" xmlns="http://www.w3.org/2000/svg">
<path d="M7.5 50V47.6418C7.5 25.4721 25.4721 7.5 47.6418 7.5H53.2013C53.2512 7.5 53.2832 7.50381 53.3006 7.50681C53.3137 7.52102 53.3386 7.55231 53.3613 7.60638C53.3839 7.66044 53.3888 7.7001 53.3898 7.71941C53.3797 7.73392 53.36 7.75945 53.325 7.79502L46.9983 14.2333C39.2866 22.081 36.6231 33.5883 40.1024 44.0262C42.9411 52.5425 49.8112 59.1015 58.4498 61.5428L61.4766 62.3983C69.6271 64.7016 78.3295 64.0487 86.0449 60.5549L92.1684 57.782C89.6348 77.3689 72.892 92.5 52.6151 92.5H50C26.5279 92.5 7.5 73.4721 7.5 50Z" stroke="black" stroke-width="15"/>
<path d="M74.5001 41.9692C71.9596 41.9692 69.9001 39.9097 69.9001 37.3692V37.0406C69.9001 35.823 68.913 34.8359 67.6954 34.8359H67.6001C65.0596 34.8359 63.0001 32.7764 63.0001 30.2359V30.2359C63.0001 27.6954 65.0596 25.6359 67.6001 25.6359H67.6954C68.913 25.6359 69.9001 24.6488 69.9001 23.4312V23.1026C69.9001 20.5621 71.9596 18.5026 74.5001 18.5026V18.5026C77.0406 18.5026 79.1001 20.5621 79.1001 23.1026V23.4312C79.1001 24.6488 80.0872 25.6359 81.3049 25.6359H81.4001C83.9406 25.6359 86.0001 27.6954 86.0001 30.2359V30.2359C86.0001 32.7764 83.9406 34.8359 81.4001 34.8359H81.3049C80.0872 34.8359 79.1001 35.823 79.1001 37.0406V37.3692C79.1001 39.9097 77.0406 41.9692 74.5001 41.9692V41.9692Z" fill="black"/>
</svg>
