<svg width="178" height="179" viewBox="0 0 178 179" fill="none" xmlns="http://www.w3.org/2000/svg">
<path d="M131.5 90C131.5 113.472 112.472 132.5 89 132.5C65.5279 132.5 46.5 113.472 46.5 90C46.5 66.5279 65.5279 47.5 89 47.5C112.472 47.5 131.5 66.5279 131.5 90Z" stroke="black" stroke-width="15"/>
<rect x="81.4998" y="28.5024" width="28" height="15" rx="7.5" transform="rotate(-90 81.4998 28.5024)" fill="black"/>
<rect x="150" y="82.002" width="28" height="15" rx="7.5" fill="black"/>
<rect x="0.00012207" y="82.002" width="28" height="15" rx="7.5" fill="black"/>
<rect x="81.4998" y="178.502" width="28" height="15" rx="7.5" transform="rotate(-90 81.4998 178.502)" fill="black"/>
<rect x="126.83" y="41.0674" width="28" height="15" rx="7.5" transform="rotate(-45 126.83 41.0674)" fill="black"/>
<rect x="137.437" y="127.334" width="28" height="15" rx="7.5" transform="rotate(45 137.437 127.334)" fill="black"/>
<rect x="31.3712" y="21.2681" width="28" height="15" rx="7.5" transform="rotate(45 31.3712 21.2681)" fill="black"/>
<rect x="20.7639" y="147.133" width="28" height="15" rx="7.5" transform="rotate(-45 20.7639 147.133)" fill="black"/>
</svg>
