<svg width="866" height="350" viewBox="0 0 866 350" fill="none" xmlns="http://www.w3.org/2000/svg">
  <path
    d="M710 257V174.228C710 156.119 717 138.495 729.299 125.203V125.203C757.87 94.3224 807.336 94.3756 835.191 125.904V125.904C846.667 138.892 853 155.626 853 172.957V257"
    stroke="#ffffff" stroke-width="25" />
  <rect x="771.099" y="200.208" width="55.2085" height="21.0796" rx="10.5398"
    transform="rotate(-90 771.099 200.208)" fill="#ffffff" />
  <rect x="771.099" y="179" width="55.2085" height="21.0796" rx="10.5398" fill="#ffffff" />
  <path
    d="M71.2185 258.634C60.3241 258.634 50.5191 256.767 41.8035 253.031C33.088 249.14 26.24 243.693 21.2597 236.69C16.2794 229.686 13.7892 221.515 13.7892 212.177H42.2704C42.893 219.181 45.6166 224.939 50.4412 229.453C55.4216 233.966 62.3473 236.223 71.2185 236.223C80.401 236.223 87.5602 234.044 92.6961 229.686C97.8321 225.173 100.4 219.414 100.4 212.411C100.4 206.963 98.7659 202.528 95.4975 199.104C92.3848 195.68 88.4162 193.034 83.5915 191.166C78.9224 189.299 72.3858 187.276 63.9815 185.097C53.3983 182.295 44.7606 179.494 38.0683 176.692C31.5316 173.735 25.9288 169.222 21.2597 163.152C16.5907 157.082 14.2561 148.989 14.2561 138.873C14.2561 129.535 16.5907 121.364 21.2597 114.361C25.9288 107.357 32.4654 101.988 40.8697 98.2524C49.274 94.5172 59.0012 92.6495 70.0512 92.6495C85.7704 92.6495 98.6102 96.6182 108.571 104.556C118.687 112.337 124.29 123.076 125.379 136.772H95.9645C95.4975 130.858 92.6961 125.8 87.5602 121.598C82.4242 117.395 75.6541 115.294 67.2498 115.294C59.6237 115.294 53.3983 117.24 48.5736 121.131C43.7489 125.022 41.3366 130.624 41.3366 137.939C41.3366 142.92 42.8151 147.044 45.7722 150.312C48.8849 153.425 52.7758 155.915 57.4448 157.783C62.1139 159.65 68.4949 161.674 76.5879 163.853C87.3267 166.81 96.0423 169.767 102.735 172.724C109.583 175.681 115.341 180.272 120.01 186.497C124.835 192.567 127.247 200.738 127.247 211.01C127.247 219.259 124.99 227.04 120.477 234.355C116.119 241.67 109.66 247.584 101.1 252.098C92.6961 256.455 82.7355 258.634 71.2185 258.634ZM185.264 94.7506V257H158.65V94.7506H185.264ZM273.665 258.634C262.771 258.634 252.966 256.767 244.25 253.031C235.535 249.14 228.687 243.693 223.707 236.69C218.726 229.686 216.236 221.515 216.236 212.177H244.717C245.34 219.181 248.064 224.939 252.888 229.453C257.869 233.966 264.794 236.223 273.665 236.223C282.848 236.223 290.007 234.044 295.143 229.686C300.279 225.173 302.847 219.414 302.847 212.411C302.847 206.963 301.213 202.528 297.944 199.104C294.832 195.68 290.863 193.034 286.038 191.166C281.369 189.299 274.833 187.276 266.428 185.097C255.845 182.295 247.208 179.494 240.515 176.692C233.979 173.735 228.376 169.222 223.707 163.152C219.038 157.082 216.703 148.989 216.703 138.873C216.703 129.535 219.038 121.364 223.707 114.361C228.376 107.357 234.912 101.988 243.317 98.2524C251.721 94.5172 261.448 92.6495 272.498 92.6495C288.217 92.6495 301.057 96.6182 311.018 104.556C321.134 112.337 326.737 123.076 327.826 136.772H298.411C297.944 130.858 295.143 125.8 290.007 121.598C284.871 117.395 278.101 115.294 269.697 115.294C262.071 115.294 255.845 117.24 251.021 121.131C246.196 125.022 243.784 130.624 243.784 137.939C243.784 142.92 245.262 147.044 248.219 150.312C251.332 153.425 255.223 155.915 259.892 157.783C264.561 159.65 270.942 161.674 279.035 163.853C289.774 166.81 298.489 169.767 305.182 172.724C312.029 175.681 317.788 180.272 322.457 186.497C327.282 192.567 329.694 200.738 329.694 211.01C329.694 219.259 327.437 227.04 322.924 234.355C318.566 241.67 312.107 247.584 303.547 252.098C295.143 256.455 285.182 258.634 273.665 258.634ZM478.524 141.441C474.321 133.348 468.485 127.278 461.015 123.232C453.544 119.03 444.906 116.929 435.101 116.929C424.363 116.929 414.791 119.341 406.387 124.166C397.982 128.99 391.368 135.838 386.543 144.709C381.874 153.581 379.54 163.853 379.54 175.525C379.54 187.198 381.874 197.547 386.543 206.574C391.368 215.445 397.982 222.293 406.387 227.118C414.791 231.943 424.363 234.355 435.101 234.355C449.575 234.355 461.326 230.309 470.353 222.216C479.38 214.123 484.905 203.15 486.928 189.299H425.997V168.055H515.409V188.832C513.697 201.438 509.184 213.033 501.869 223.616C494.71 234.199 485.294 242.682 473.621 249.063C462.104 255.288 449.264 258.401 435.101 258.401C419.849 258.401 405.92 254.899 393.313 247.895C380.707 240.736 370.669 230.853 363.198 218.247C355.883 205.64 352.226 191.4 352.226 175.525C352.226 159.65 355.883 145.41 363.198 132.803C370.669 120.197 380.707 110.392 393.313 103.388C406.075 96.2291 420.005 92.6495 435.101 92.6495C452.377 92.6495 467.707 96.9295 481.092 105.489C494.632 113.894 504.437 125.878 510.506 141.441H478.524ZM671.224 94.7506V257H644.61V186.03H568.271V257H541.658V94.7506H568.271V164.319H644.61V94.7506H671.224Z"
    fill="#ffffff" />
</svg>